<?xml version="1.0" encoding="UTF-8"?>
<svg width="455px" height="38px" viewBox="0 0 455 38" version="1.1" xmlns="http://www.w3.org/2000/svg" xmlns:xlink="http://www.w3.org/1999/xlink">
    <!-- Generator: Sketch 50 (54983) - http://www.bohemiancoding.com/sketch -->
    <title>logo</title>
    <desc>Created with Sketch.</desc>
    <defs></defs>
    <g id="Website" stroke="none" stroke-width="1" fill="none" fill-rule="evenodd">
        <g id="CityHome" transform="translate(-495.000000, -100.000000)">
            <g id="logo" transform="translate(495.000000, 100.000000)">
                <circle id="Oval-2-Copy" fill="#FF3A65" cx="445" cy="18" r="10"></circle>
                <path d="M38.6075484,3.45897151 C36.4082743,1.23983914 33.4966847,0.0269530247 30.3892084,0.0269530247 C27.2817321,0.0269530247 24.3612385,1.24882348 22.1619645,3.46795585 L21.0133557,4.62693591 L19.8469391,3.44998717 C17.647665,1.2308548 14.7182676,0 11.6107913,0 C8.51221887,0 5.59172536,1.22187045 3.40135522,3.43201848 C1.20208115,5.65115085 -0.00885518816,8.59801489 4.87554768e-05,11.7335501 C4.87554768e-05,14.8690853 1.21988903,17.806965 3.41916311,20.0260974 L20.1407693,36.8986909 C20.3722718,37.1322837 20.6839098,37.2580645 20.9866439,37.2580645 C21.289378,37.2580645 21.601016,37.1412681 21.8325186,36.9076752 L38.5897405,20.0620347 C40.7890146,17.8429024 41.9999509,14.8960383 41.9999509,11.7605031 C42.0088548,8.62496791 40.8068224,5.67810388 38.6075484,3.45897151 L38.6075484,3.45897151 Z M36.920808,18.1924867 L20.9865942,34.0871654 L5.08804735,18.1656979 C3.34036638,16.4154973 2.37735849,14.0938027 2.37735849,11.6203049 C2.37735849,9.14680718 3.33144964,6.82511253 5.07913061,5.08384155 C6.81789485,3.34257057 9.13624717,2.37817433 11.5972673,2.37817433 C14.0672042,2.37817433 16.3944733,3.34257057 18.1421542,5.09277115 L20.1573374,7.11085957 C20.6299246,7.58412809 21.3878475,7.58412809 21.8604347,7.11085957 L23.8577844,5.11063033 C25.6054654,3.36042976 27.9327344,2.39603352 30.3937546,2.39603352 C32.8547747,2.39603352 35.173127,3.36042976 36.920808,5.10170074 C38.668489,6.85190132 39.6225801,9.17359596 39.6225801,11.6470937 C39.6314969,14.1205915 38.668489,16.4422861 36.920808,18.1924867 L36.920808,18.1924867 Z" id="Shape-Copy" fill="#424242"></path>
                <path d="M51.943,0.312 L57.039,0.312 L63.851,19.916 L63.955,19.916 L70.715,0.312 L75.863,0.312 L75.863,37.336 L70.559,37.336 L70.559,14.82 L70.455,14.82 L65.203,30.732 L62.551,30.732 L57.351,14.82 L57.247,14.82 L57.247,37.336 L51.943,37.336 L51.943,0.312 Z M90.097,10.972 L89.993,10.972 L87.393,24.388 L92.697,24.388 L90.097,10.972 Z M87.861,0.312 L92.281,0.312 L100.549,37.336 L95.245,37.336 L93.685,29.38 L86.457,29.38 L84.897,37.336 L79.593,37.336 L87.861,0.312 Z M104.279,0.312 L112.131,0.312 C115.147015,0.312 117.452325,1.15265826 119.047,2.834 C120.641675,4.51534174 121.439,6.86398492 121.439,9.88 L121.439,27.196 C121.439,30.662684 120.598342,33.2193251 118.917,34.866 C117.235658,36.5126749 114.817682,37.336 111.663,37.336 L104.279,37.336 L104.279,0.312 Z M109.583,32.344 L112.027,32.344 C113.517674,32.344 114.574997,31.9713371 115.199,31.226 C115.823003,30.4806629 116.135,29.3106746 116.135,27.716 L116.135,9.88 C116.135,8.42399272 115.840336,7.29733732 115.251,6.5 C114.661664,5.70266268 113.587008,5.304 112.027,5.304 L109.583,5.304 L109.583,32.344 Z M127.561,0.312 L143.369,0.312 L143.369,5.304 L132.865,5.304 L132.865,16.172 L142.017,16.172 L142.017,21.164 L132.865,21.164 L132.865,32.032 L143.369,32.032 L143.369,37.336 L127.561,37.336 L127.561,0.312 Z M158.889,0.312 L164.193,0.312 L164.193,37.336 L158.889,37.336 L158.889,0.312 Z M170.263,0.312 L175.359,0.312 L183.367,22.62 L183.471,22.62 L183.471,0.312 L188.775,0.312 L188.775,37.336 L183.783,37.336 L175.671,15.08 L175.567,15.08 L175.567,37.336 L170.263,37.336 L170.263,0.312 Z M217.815,28.6 C217.815,29.8133394 217.607002,30.9659945 217.191,32.058 C216.774998,33.1500055 216.177004,34.1119958 215.397,34.944 C214.616996,35.7760042 213.672339,36.4346642 212.563,36.92 C211.453661,37.4053358 210.18834,37.648 208.767,37.648 C207.068325,37.648 205.655672,37.2753371 204.529,36.53 C203.402328,35.7846629 202.50967,35.0480036 201.851,34.32 L206.011,30.992 C206.392335,31.3733352 206.834331,31.6939987 207.337,31.954 C207.839669,32.2140013 208.368331,32.344 208.923,32.344 C209.235002,32.344 209.598998,32.2833339 210.015,32.162 C210.431002,32.0406661 210.820998,31.815335 211.185,31.486 C211.549002,31.156665 211.860999,30.7060029 212.121,30.134 C212.381001,29.5619971 212.511,28.8080047 212.511,27.872 L212.511,0.312 L217.815,0.312 L217.815,28.6 Z M232.049,10.972 L231.945,10.972 L229.345,24.388 L234.649,24.388 L232.049,10.972 Z M229.813,0.312 L234.233,0.312 L242.501,37.336 L237.197,37.336 L235.637,29.38 L228.409,29.38 L226.849,37.336 L221.545,37.336 L229.813,0.312 Z M246.231,0.312 L251.327,0.312 L258.139,19.916 L258.243,19.916 L265.003,0.312 L270.151,0.312 L270.151,37.336 L264.847,37.336 L264.847,14.82 L264.743,14.82 L259.491,30.732 L256.839,30.732 L251.639,14.82 L251.535,14.82 L251.535,37.336 L246.231,37.336 L246.231,0.312 Z M293.433,10.972 L288.129,10.972 L288.129,9.776 C288.129,8.5626606 287.843003,7.51400442 287.271,6.63 C286.698997,5.74599558 285.737007,5.304 284.385,5.304 C283.656996,5.304 283.059002,5.44266528 282.591,5.72 C282.122998,5.99733472 281.759001,6.3526645 281.499,6.786 C281.238999,7.2193355 281.057001,7.72199714 280.953,8.294 C280.848999,8.86600286 280.797,9.46399688 280.797,10.088 C280.797,10.8160036 280.823,11.4313308 280.875,11.934 C280.927,12.4366692 281.056999,12.8699982 281.265,13.234 C281.473001,13.5980018 281.776331,13.9186653 282.175,14.196 C282.573669,14.4733347 283.119663,14.7506653 283.813,15.028 L287.869,16.64 C289.047673,17.0906689 290.000996,17.6193303 290.729,18.226 C291.457004,18.8326697 292.020331,19.5433293 292.419,20.358 C292.817669,21.1726707 293.086333,22.1086614 293.225,23.166 C293.363667,24.2233386 293.433,25.4279932 293.433,26.78 C293.433,28.3400078 293.277002,29.7873267 292.965,31.122 C292.652998,32.4566733 292.14167,33.6006619 291.431,34.554 C290.72033,35.5073381 289.775673,36.2613306 288.597,36.816 C287.418327,37.3706694 285.979675,37.648 284.281,37.648 C282.998327,37.648 281.802339,37.4226689 280.693,36.972 C279.583661,36.5213311 278.630337,35.9060039 277.833,35.126 C277.035663,34.3459961 276.403002,33.418672 275.935,32.344 C275.466998,31.269328 275.233,30.1080062 275.233,28.86 L275.233,26.884 L280.537,26.884 L280.537,28.548 C280.537,29.5186715 280.822997,30.3939961 281.395,31.174 C281.967003,31.9540039 282.928993,32.344 284.281,32.344 C285.182338,32.344 285.884331,32.2140013 286.387,31.954 C286.889669,31.6939987 287.270999,31.3300023 287.531,30.862 C287.791001,30.3939977 287.955666,29.8133368 288.025,29.12 C288.094334,28.4266632 288.129,27.6640042 288.129,26.832 C288.129,25.8613285 288.094334,25.0640031 288.025,24.44 C287.955666,23.8159969 287.808334,23.3133352 287.583,22.932 C287.357666,22.5506648 287.045669,22.2386679 286.647,21.996 C286.248331,21.7533321 285.71967,21.4933347 285.061,21.216 L281.265,19.656 C278.976989,18.7199953 277.443004,17.4806744 276.663,15.938 C275.882996,14.3953256 275.493,12.4626783 275.493,10.14 C275.493,8.7533264 275.683665,7.43600624 276.065,6.188 C276.446335,4.93999376 277.009663,3.86533784 277.755,2.964 C278.500337,2.06266216 279.444994,1.34333602 280.589,0.806 C281.733006,0.26866398 283.067659,0 284.593,0 C285.91034,0 287.114995,0.24266424 288.207,0.728 C289.299005,1.21333576 290.234996,1.85466268 291.015,2.652 C291.795004,3.44933732 292.392998,4.34199506 292.809,5.33 C293.225002,6.31800494 293.433,7.3319948 293.433,8.372 L293.433,10.972 Z M298.515,0.312 L303.819,0.312 L303.819,16.172 L310.371,16.172 L310.371,0.312 L315.675,0.312 L315.675,37.336 L310.371,37.336 L310.371,20.852 L303.819,20.852 L303.819,37.336 L298.515,37.336 L298.515,0.312 Z M321.797,0.312 L337.605,0.312 L337.605,5.304 L327.101,5.304 L327.101,16.172 L336.253,16.172 L336.253,21.164 L327.101,21.164 L327.101,32.032 L337.605,32.032 L337.605,37.336 L321.797,37.336 L321.797,0.312 Z M342.167,0.312 L350.019,0.312 C353.035015,0.312 355.340325,1.15265826 356.935,2.834 C358.529675,4.51534174 359.327,6.86398492 359.327,9.88 L359.327,27.196 C359.327,30.662684 358.486342,33.2193251 356.805,34.866 C355.123658,36.5126749 352.705682,37.336 349.551,37.336 L342.167,37.336 L342.167,0.312 Z M347.471,32.344 L349.915,32.344 C351.405674,32.344 352.462997,31.9713371 353.087,31.226 C353.711003,30.4806629 354.023,29.3106746 354.023,27.716 L354.023,9.88 C354.023,8.42399272 353.728336,7.29733732 353.139,6.5 C352.549664,5.70266268 351.475008,5.304 349.915,5.304 L347.471,5.304 L347.471,32.344 Z M365.449,0.312 L373.405,0.312 C374.861007,0.312 376.143661,0.50266476 377.253,0.884 C378.362339,1.26533524 379.367662,1.94132848 380.269,2.912 C381.170338,3.88267152 381.794332,5.0179935 382.141,6.318 C382.487668,7.6180065 382.661,9.37732224 382.661,11.596 C382.661,13.2253415 382.565668,14.6206609 382.375,15.782 C382.184332,16.9433391 381.777003,18.0266616 381.153,19.032 C380.424996,20.2453394 379.454339,21.1899966 378.241,21.866 C377.027661,22.5420034 375.43301,22.88 373.457,22.88 L370.753,22.88 L370.753,37.336 L365.449,37.336 L365.449,0.312 Z M370.753,17.888 L373.301,17.888 C374.375672,17.888 375.207664,17.7320016 375.797,17.42 C376.386336,17.1079984 376.819665,16.683336 377.097,16.146 C377.374335,15.608664 377.539,14.9586705 377.591,14.196 C377.643,13.4333295 377.669,12.5840047 377.669,11.648 C377.669,10.781329 377.643,9.9580039 377.591,9.178 C377.539,8.3979961 377.383001,7.72200286 377.123,7.15 C376.862999,6.57799714 376.455669,6.12733498 375.901,5.798 C375.346331,5.46866502 374.549005,5.304 373.509,5.304 L370.753,5.304 L370.753,17.888 Z M404.903,29.016 C404.903,30.2293394 404.677669,31.3559948 404.227,32.396 C403.776331,33.4360052 403.161004,34.3459961 402.381,35.126 C401.600996,35.9060039 400.691005,36.5213311 399.651,36.972 C398.610995,37.4226689 397.501673,37.648 396.323,37.648 C395.144327,37.648 394.035005,37.4226689 392.995,36.972 C391.954995,36.5213311 391.045004,35.9060039 390.265,35.126 C389.484996,34.3459961 388.869669,33.4360052 388.419,32.396 C387.968331,31.3559948 387.743,30.2293394 387.743,29.016 L387.743,0.312 L393.047,0.312 L393.047,28.496 C393.047,29.8133399 393.358997,30.7839969 393.983,31.408 C394.607003,32.0320031 395.386995,32.344 396.323,32.344 C397.259005,32.344 398.038997,32.0320031 398.663,31.408 C399.287003,30.7839969 399.599,29.8133399 399.599,28.496 L399.599,0.312 L404.903,0.312 L404.903,29.016 Z M416.329,16.848 L419.345,16.848 C420.281005,16.848 421.026331,16.7180013 421.581,16.458 C422.135669,16.1979987 422.560332,15.8253358 422.855,15.34 C423.149668,14.8546642 423.348999,14.2566702 423.453,13.546 C423.557,12.8353298 423.609,12.0120047 423.609,11.076 C423.609,10.1399953 423.557,9.31667022 423.453,8.606 C423.348999,7.89532978 423.132335,7.28866918 422.803,6.786 C422.473665,6.28333082 422.014336,5.91066788 421.425,5.668 C420.835664,5.42533212 420.055671,5.304 419.085,5.304 L416.329,5.304 L416.329,16.848 Z M411.025,0.312 L419.553,0.312 C425.793031,0.312 428.913,3.93463044 428.913,11.18 C428.913,13.3293441 428.575003,15.1753256 427.899,16.718 C427.222997,18.2606744 426.035675,19.4999953 424.337,20.436 L430.057,37.336 L424.441,37.336 L419.501,21.528 L416.329,21.528 L416.329,37.336 L411.025,37.336 L411.025,0.312 Z" id="MADE-IN-JAMSHEDPUR" fill="#424242"></path>
            </g>
        </g>
    </g>
</svg>